<svg width="30" height="30" viewBox="0 0 30 30" fill="none" xmlns="http://www.w3.org/2000/svg">
<svg viewBox="0 0 1024 1024" class="icon" version="1.1" xmlns="http://www.w3.org/2000/svg" fill="#000000">
<svg version="1.1" id="Layer_1" xmlns="http://www.w3.org/2000/svg" xmlns:xlink="http://www.w3.org/1999/xlink" viewBox="0 0 512 512" xml:space="preserve" fill="#000000"><g id="SVGRepo_bgCarrier" stroke-width="0"></g><g id="SVGRepo_tracerCarrier" stroke-linecap="round" stroke-linejoin="round"></g><g id="SVGRepo_iconCarrier"> <g> <rect x="189.217" y="166.957" style="fill:#0fb7ff;" width="133.565" height="33.948"></rect> <path style="fill:#0fb7ff;" d="M467.478,267.687h-33.391v-66.783h33.391c18.442,0,33.391,14.949,33.391,33.391l0,0 C500.87,252.738,485.92,267.687,467.478,267.687z"></path> <path style="fill:#0fb7ff;" d="M44.522,267.687h33.391v-66.783H44.522c-18.442,0-33.391,14.949-33.391,33.391l0,0 C11.13,252.738,26.08,267.687,44.522,267.687z"></path> </g> <g> <path style="fill:#fb9f9d;" d="M356.174,166.957H155.826V88.209c0-42.569,34.509-77.078,77.078-77.078h46.191 c42.569,0,77.078,34.509,77.078,77.078V166.957z"></path> <path style="fill:#fb9f9d;" d="M322.968,434.087H189.031c-61.369,0-111.118-49.75-111.118-111.118V202.203 c0-0.717,0.581-1.299,1.299-1.299h353.577c0.717,0,1.299,0.581,1.299,1.299v120.765 C434.087,384.337,384.337,434.087,322.968,434.087z"></path> </g> <g> <circle style="fill:#b585d5;" cx="289.391" cy="100.174" r="22.261"></circle> <path style="fill:#b585d5;" d="M256,500.87L256,500.87c-24.588,0-44.522-19.933-44.522-44.522v-22.261h89.043v22.261 C300.522,480.936,280.588,500.87,256,500.87z"></path> <polygon style="fill:#b585d5;" points="278.261,245.426 278.261,278.261 300.522,278.261 367.304,278.261 389.565,278.261 389.565,245.426 "></polygon> </g> <path d="M199.235,111.304h34.504c6.147,0,11.13-4.983,11.13-11.13c0-6.147-4.983-11.13-11.13-11.13h-34.504 c-6.147,0-11.13,4.983-11.13,11.13C188.104,106.321,193.087,111.304,199.235,111.304z"></path> <path d="M289.391,133.565c18.412,0,33.391-14.979,33.391-33.391s-14.979-33.391-33.391-33.391S256,81.762,256,100.174 S270.979,133.565,289.391,133.565z M289.391,89.043c6.137,0,11.13,4.993,11.13,11.13s-4.993,11.13-11.13,11.13 s-11.13-4.993-11.13-11.13S283.254,89.043,289.391,89.043z"></path> <path d="M478.609,402.105V277.408C497.79,272.453,512,255.003,512,234.296c0-24.549-19.972-44.522-44.522-44.522h-33.391 c-0.219,0-0.434,0.02-0.65,0.033c-0.216-0.011-0.43-0.033-0.649-0.033h-98.875v-11.687h22.261c6.146,0,11.13-4.983,11.13-11.13 V88.209C367.304,39.57,327.733,0,279.096,0h-46.191c-48.639,0-88.209,39.57-88.209,88.209v78.748c0,6.147,4.983,11.13,11.13,11.13 h22.261v11.687H79.212c-0.219,0-0.432,0.022-0.648,0.033c-0.216-0.012-0.431-0.033-0.65-0.033H44.522 C19.972,189.774,0,209.746,0,234.296c0,20.707,14.21,38.157,33.391,43.113v124.696C14.21,407.06,0,424.51,0,445.217 c0,6.147,4.983,11.13,11.13,11.13s11.13-4.983,11.13-11.13c0-12.275,9.986-22.261,22.261-22.261s22.261,9.986,22.261,22.261 c0,6.147,4.983,11.13,11.13,11.13s11.13-4.983,11.13-11.13c0-20.707-14.21-38.157-33.391-43.113V278.817h11.13v44.151 c0,67.408,54.841,122.249,122.249,122.249h11.316v11.13C200.348,487.034,225.313,512,256,512s55.652-24.966,55.652-55.652v-11.13 h11.316c67.408,0,122.249-54.841,122.249-122.249v-44.151h11.13v123.287c-19.181,4.955-33.391,22.406-33.391,43.113 c0,6.147,4.984,11.13,11.13,11.13c6.146,0,11.13-4.983,11.13-11.13c0-12.275,9.986-22.261,22.261-22.261s22.261,9.986,22.261,22.261 c0,6.147,4.984,11.13,11.13,11.13c6.146,0,11.13-4.983,11.13-11.13C512,424.51,497.79,407.06,478.609,402.105z M166.957,88.209 c0-36.363,29.585-65.948,65.948-65.948h46.191c36.364,0,65.948,29.585,65.948,65.948v67.617h-22.261H189.217h-22.261V88.209z M200.348,178.087h111.304v11.687H200.348V178.087z M44.522,256.557c-12.275,0-22.261-9.986-22.261-22.261 s9.986-22.261,22.261-22.261h22.261v44.522H44.522z M289.391,456.348c0,18.412-14.979,33.391-33.391,33.391 s-33.391-14.979-33.391-33.391v-11.13h66.783V456.348z M422.957,322.968c0,55.133-44.855,99.988-99.988,99.988h-22.447h-89.043 h-22.447c-55.133,0-99.988-44.855-99.988-99.988v-55.282v-55.652h100.174h133.565h100.174v55.652V322.968z M445.217,212.035h22.261 c12.275,0,22.261,9.986,22.261,22.261s-9.986,22.261-22.261,22.261h-22.261V212.035z"></path> <path d="M344.185,274.009c-0.278-0.679-0.623-1.325-1.024-1.926c-0.4-0.612-0.867-1.18-1.38-1.692 c-0.512-0.512-1.08-0.979-1.692-1.38c-0.601-0.401-1.247-0.746-1.926-1.024c-0.668-0.278-1.368-0.501-2.08-0.634 c-1.436-0.289-2.905-0.289-4.341,0c-0.712,0.134-1.414,0.356-2.081,0.634c-0.679,0.278-1.323,0.623-1.924,1.024 c-0.613,0.401-1.181,0.868-1.693,1.38c-0.512,0.512-0.979,1.08-1.38,1.692c-0.4,0.601-0.746,1.247-1.024,1.926 c-0.278,0.668-0.501,1.369-0.633,2.081c-0.146,0.712-0.223,1.447-0.223,2.17s0.077,1.458,0.223,2.17 c0.132,0.712,0.355,1.414,0.633,2.081c0.278,0.679,0.624,1.325,1.024,1.926c0.401,0.612,0.868,1.18,1.38,1.692 c0.512,0.512,1.08,0.979,1.693,1.38c0.601,0.401,1.245,0.746,1.924,1.024c0.669,0.278,1.369,0.501,2.081,0.634 c0.712,0.145,1.447,0.223,2.17,0.223c0.722,0,1.458-0.078,2.17-0.223c0.712-0.134,1.414-0.356,2.08-0.634 c0.679-0.278,1.325-0.623,1.926-1.024c0.612-0.401,1.18-0.868,1.692-1.38c0.513-0.512,0.981-1.08,1.38-1.692 c0.401-0.601,0.746-1.247,1.024-1.926c0.278-0.668,0.501-1.369,0.634-2.081c0.145-0.712,0.223-1.447,0.223-2.17 s-0.078-1.458-0.223-2.17C344.687,275.378,344.464,274.677,344.185,274.009z"></path> <path d="M389.565,234.296H278.261c-6.146,0-11.13,4.983-11.13,11.13v32.835c0,6.147,4.984,11.13,11.13,11.13h22.261 c6.146,0,11.13-4.983,11.13-11.13s-4.984-11.13-11.13-11.13h-11.13v-10.574h89.043v10.574h-11.13c-6.146,0-11.13,4.983-11.13,11.13 s4.984,11.13,11.13,11.13h22.261c6.146,0,11.13-4.983,11.13-11.13v-32.835C400.696,239.279,395.711,234.296,389.565,234.296z"></path> </g></svg></svg></svg>