<svg width="30" height="30" viewBox="0 0 30 30" fill="none" xmlns="http://www.w3.org/2000/svg">
<svg viewBox="0 0 24 24" fill="none" xmlns="http://www.w3.org/2000/svg">
<svg viewBox="-38.01 0 319.89 319.89" xmlns="http://www.w3.org/2000/svg" fill="#000000"><g id="SVGRepo_bgCarrier" stroke-width="0"></g><g id="SVGRepo_tracerCarrier" stroke-linecap="round" stroke-linejoin="round"></g><g id="SVGRepo_iconCarrier"><defs><style>.a{fill:#fde9dc;}.b{fill:#f8b8b4;}.c{fill:#fedeb4;}.d{fill:#fdece1;}.e{fill:#fef9f5;}.f{fill:#f9bfbc;}.g{fill:#fec578;}.h{fill:#fef1f0;}.i{fill:#ea9694;}.j{fill:#ed9b43;}.k{fill:#ea918f;}.l{fill:#f9cbac;}.m{fill:#211715;}</style></defs><path class="a" d="M241.928,258.23v61.66h-240V258.23Z"></path><path class="b" d="M241.928,212.23v46h-240v-46Z"></path><path class="c" d="M241.928,48.23v164h-240v-164Z"></path><path class="d" d="M241.928,2V48.23h-240V2Z"></path><path class="e" d="M17.992,312.466q-5.264-5.262-10.52-10.53a2,2,0,0,0-2.829,2.829q5.263,5.262,10.52,10.53a2,2,0,0,0,2.829-2.829Z"></path><path class="e" d="M15.593,265.625Q34.8,284.946,54.086,304.2q5.514,5.523,11.027,11.049c1.821,1.824,4.651-1,2.829-2.829Q48.456,292.9,28.975,273.374,23.7,268.085,18.422,262.8c-1.818-1.828-4.646,1-2.829,2.829Z"></path><path class="e" d="M65.533,265.575q19.286,19.286,38.535,38.607,5.5,5.511,11,11.023c1.821,1.824,4.651-1,2.829-2.829q-19.467-19.5-38.927-39-5.3-5.317-10.613-10.628c-1.823-1.822-4.652,1-2.829,2.829Z"></path><path class="e" d="M167.852,312.326q-19.442-19.473-38.877-38.952-5.323-5.337-10.653-10.668c-1.823-1.822-4.652,1-2.829,2.829q19.293,19.293,38.55,38.622l10.98,11c1.821,1.824,4.651-1,2.829-2.829Z"></path><path class="e" d="M217.8,312.276q-19.417-19.448-38.827-38.9-5.342-5.355-10.683-10.708c-1.818-1.828-4.647,1-2.829,2.829q19.247,19.355,38.562,38.64,5.475,5.484,10.948,10.97c1.821,1.824,4.651-1,2.829-2.829Z"></path><path class="e" d="M215.413,265.445q10.522,10.583,21.08,21.13c1.821,1.824,4.65-1,2.829-2.829q-10.543-10.562-21.08-21.13c-1.818-1.828-4.647,1-2.829,2.829Z"></path><path class="e" d="M236.5,301.806q-5.208,5.237-10.43,10.46A2,2,0,1,0,228.9,315.1q5.207-5.238,10.43-10.46a2,2,0,0,0-2.829-2.829Z"></path><path class="e" d="M225.633,262.606Q206.354,282,187,301.325q-5.486,5.5-10.973,10.991c-1.821,1.824,1.007,4.654,2.829,2.829q19.437-19.47,38.871-38.943,5.371-5.38,10.739-10.767c1.817-1.828-1.011-4.658-2.829-2.829Z"></path><path class="e" d="M127.388,315.78c1.068,0,1.724-.887,2.411-1.577l2.5-2.5q2.46-2.467,4.921-4.934,5.125-5.136,10.251-10.272,10.039-10.068,20.091-20.125,5.433-5.44,10.864-10.882c1.822-1.823-1.006-4.652-2.829-2.829q-19.324,19.332-38.621,38.69-5.5,5.508-10.989,11.02l1.415-.586h-.01c-2.574,0-2.579,4,0,4Z"></path><path class="e" d="M125.553,262.7q-19.315,19.317-38.6,38.667-5.511,5.52-11.021,11.043c-1.819,1.826,1.008,4.655,2.829,2.829Q98.229,295.7,117.723,276.2q5.329-5.339,10.659-10.677c1.822-1.823-1.005-4.652-2.829-2.829Z"></path><path class="e" d="M75.5,262.736Q56.258,282.1,36.933,301.388q-5.52,5.534-11.04,11.068c-1.819,1.826,1.008,4.655,2.829,2.829q19.49-19.553,39-39.083,5.307-5.316,10.609-10.637c1.816-1.828-1.011-4.658-2.829-2.829Z"></path><path class="e" d="M7.462,286.485q10.4-10.442,20.83-20.86c1.828-1.818-1-4.646-2.829-2.829q-10.452,10.392-20.83,20.86c-1.819,1.826,1.009,4.655,2.829,2.829Z"></path><path class="f" d="M199.187,110.617H163.175a4.994,4.994,0,0,1-4.993-5v-8a5,5,0,0,1,5-5h36a5,5,0,0,1,5,5v8A5,5,0,0,1,199.187,110.617Z"></path><path class="f" d="M139.937,110.617H103.925a4.994,4.994,0,0,1-4.993-5v-8a5,5,0,0,1,5-5h36a5,5,0,0,1,5,5v8A5,5,0,0,1,139.937,110.617Z"></path><path class="f" d="M80.687,110.617H44.675a4.994,4.994,0,0,1-4.993-5v-8a5,5,0,0,1,5-5h36a5,5,0,0,1,5,5v8A5,5,0,0,1,80.687,110.617Z"></path><path class="f" d="M51.84,80.617H14.022a4.37,4.37,0,0,1-4.09-4.609V67.227a4.376,4.376,0,0,1,4.1-4.61H51.835a4.376,4.376,0,0,1,4.1,4.61v8.781A4.371,4.371,0,0,1,51.84,80.617Z"></path><path class="f" d="M228.937,80.617H192.925a4.994,4.994,0,0,1-4.993-5v-8a5,5,0,0,1,5-5h36a5,5,0,0,1,5,5v8A5,5,0,0,1,228.937,80.617Z"></path><path class="f" d="M169.6,80.617H133.592a4.993,4.993,0,0,1-4.993-5v-8a5,5,0,0,1,5-5h36a5,5,0,0,1,5,5v8A5,5,0,0,1,169.6,80.617Z"></path><path class="f" d="M110.27,80.617H74.258a4.994,4.994,0,0,1-4.993-5v-8a5,5,0,0,1,5-5h36a5,5,0,0,1,5,5v8A5,5,0,0,1,110.27,80.617Z"></path><path class="g" d="M241.882,169.4H203.907a2,2,0,0,0-2,2v24a2,2,0,0,0,2,2h38Z"></path><path class="g" d="M37.957,169.4H2.029c.006,8.811.012,18.059.018,28H37.965a1.993,1.993,0,0,0,1.992-2v-24A2,2,0,0,0,37.957,169.4Z"></path><path class="h" d="M189.922,247H171a2.54,2.54,0,0,1-2.54-2.543v-18.9A2.553,2.553,0,0,1,171.008,223h18.9a2.552,2.552,0,0,1,2.551,2.552V244.46A2.535,2.535,0,0,1,189.922,247Z"></path><path class="h" d="M150.922,247H132a2.54,2.54,0,0,1-2.54-2.543v-18.9A2.553,2.553,0,0,1,132.008,223h18.9a2.552,2.552,0,0,1,2.551,2.552V244.46A2.535,2.535,0,0,1,150.922,247Z"></path><path class="h" d="M111.922,247H93a2.54,2.54,0,0,1-2.54-2.543v-18.9A2.553,2.553,0,0,1,93.008,223h18.9a2.552,2.552,0,0,1,2.551,2.552V244.46A2.535,2.535,0,0,1,111.922,247Z"></path><path class="h" d="M72.922,247H54a2.54,2.54,0,0,1-2.54-2.543v-18.9A2.553,2.553,0,0,1,54.008,223h18.9a2.552,2.552,0,0,1,2.551,2.552V244.46A2.535,2.535,0,0,1,72.922,247Z"></path><path class="h" d="M33.922,247H15a2.54,2.54,0,0,1-2.54-2.543v-18.9A2.553,2.553,0,0,1,15.008,223h18.9a2.552,2.552,0,0,1,2.551,2.552V244.46A2.535,2.535,0,0,1,33.922,247Z"></path><path class="i" d="M24.456,230.988a3.922,3.922,0,0,0-4,3.975,3.858,3.858,0,0,0,4,4.05,3.817,3.817,0,0,0,4-4.05A3.918,3.918,0,0,0,24.456,230.988Z"></path><path class="i" d="M63.456,230.988a3.922,3.922,0,0,0-4,3.975,3.858,3.858,0,0,0,4,4.05,3.817,3.817,0,0,0,4-4.05A3.918,3.918,0,0,0,63.456,230.988Z"></path><path class="i" d="M102.456,230.988a3.922,3.922,0,0,0-4,3.975,3.858,3.858,0,0,0,4,4.05,3.817,3.817,0,0,0,4-4.05A3.918,3.918,0,0,0,102.456,230.988Z"></path><path class="i" d="M141.456,230.988a3.922,3.922,0,0,0-4,3.975,3.858,3.858,0,0,0,4,4.05,3.817,3.817,0,0,0,4-4.05A3.918,3.918,0,0,0,141.456,230.988Z"></path><path class="i" d="M180.456,230.988a3.922,3.922,0,0,0-4,3.975,3.858,3.858,0,0,0,4,4.05,3.817,3.817,0,0,0,4-4.05A3.918,3.918,0,0,0,180.456,230.988Z"></path><path class="h" d="M228.922,247H210a2.54,2.54,0,0,1-2.54-2.543v-18.9A2.553,2.553,0,0,1,210.008,223h18.9a2.552,2.552,0,0,1,2.551,2.552V244.46A2.535,2.535,0,0,1,228.922,247Z"></path><path class="i" d="M219.456,230.988a3.922,3.922,0,0,0-4,3.975,3.858,3.858,0,0,0,4,4.05,3.817,3.817,0,0,0,4-4.05A3.918,3.918,0,0,0,219.456,230.988Z"></path><path class="j" d="M11.438,178.882a4.412,4.412,0,0,0-4.5,4.472,4.34,4.34,0,0,0,4.5,4.556,4.294,4.294,0,0,0,4.5-4.556A4.408,4.408,0,0,0,11.438,178.882Z"></path><path class="j" d="M230.425,178.882a4.412,4.412,0,0,0-4.5,4.472,4.339,4.339,0,0,0,4.5,4.556,4.294,4.294,0,0,0,4.5-4.556A4.409,4.409,0,0,0,230.425,178.882Z"></path><path class="g" d="M111.965,197.4H58.916a2,2,0,0,1-2-2v-24a2,2,0,0,1,2-2h53.038a2,2,0,0,1,2,2v24A1.993,1.993,0,0,1,111.965,197.4Z"></path><path class="g" d="M184.952,197.4H131.9a2,2,0,0,1-2-2v-24a2,2,0,0,1,2-2h53.038a2,2,0,0,1,2,2v24A1.993,1.993,0,0,1,184.952,197.4Z"></path><path class="g" d="M75.471,155.4H22.423a2,2,0,0,1-2-2v-24a2,2,0,0,1,2-2H75.464a2,2,0,0,1,2,2v24A1.994,1.994,0,0,1,75.471,155.4Z"></path><path class="g" d="M148.458,155.4H95.41a2,2,0,0,1-2-2v-24a2,2,0,0,1,2-2h53.038a2,2,0,0,1,2,2v24A1.993,1.993,0,0,1,148.458,155.4Z"></path><path class="g" d="M221.446,155.4H168.4a2,2,0,0,1-2-2v-24a2,2,0,0,1,2-2h53.038a2,2,0,0,1,2,2v24A1.993,1.993,0,0,1,221.446,155.4Z"></path><path class="j" d="M48.944,136.882a4.412,4.412,0,0,0-4.5,4.472,4.339,4.339,0,0,0,4.5,4.556,4.294,4.294,0,0,0,4.5-4.556A4.409,4.409,0,0,0,48.944,136.882Z"></path><path class="k" d="M62.682,98.106a3.432,3.432,0,0,0-3.5,3.479,3.375,3.375,0,0,0,3.5,3.543,3.34,3.34,0,0,0,3.5-3.543A3.429,3.429,0,0,0,62.682,98.106Z"></path><path class="k" d="M121.932,98.106a3.432,3.432,0,0,0-3.5,3.479,3.375,3.375,0,0,0,3.5,3.543,3.34,3.34,0,0,0,3.5-3.543A3.429,3.429,0,0,0,121.932,98.106Z"></path><path class="k" d="M181.182,98.106a3.432,3.432,0,0,0-3.5,3.479,3.375,3.375,0,0,0,3.5,3.543,3.34,3.34,0,0,0,3.5-3.543A3.429,3.429,0,0,0,181.182,98.106Z"></path><path class="k" d="M210.932,68.106a3.432,3.432,0,0,0-3.5,3.479,3.375,3.375,0,0,0,3.5,3.543,3.34,3.34,0,0,0,3.5-3.543A3.429,3.429,0,0,0,210.932,68.106Z"></path><path class="k" d="M151.6,68.106a3.432,3.432,0,0,0-3.5,3.479,3.375,3.375,0,0,0,3.5,3.543,3.34,3.34,0,0,0,3.5-3.543A3.429,3.429,0,0,0,151.6,68.106Z"></path><path class="k" d="M92.265,68.106a3.433,3.433,0,0,0-3.5,3.479,3.375,3.375,0,0,0,3.5,3.543,3.339,3.339,0,0,0,3.5-3.543A3.429,3.429,0,0,0,92.265,68.106Z"></path><path class="k" d="M32.932,68.106a3.432,3.432,0,0,0-3.5,3.479,3.375,3.375,0,0,0,3.5,3.543,3.34,3.34,0,0,0,3.5-3.543A3.429,3.429,0,0,0,32.932,68.106Z"></path><path class="j" d="M121.932,136.882a4.412,4.412,0,0,0-4.5,4.472,4.34,4.34,0,0,0,4.5,4.556,4.294,4.294,0,0,0,4.5-4.556A4.408,4.408,0,0,0,121.932,136.882Z"></path><path class="j" d="M85.438,178.882a4.412,4.412,0,0,0-4.5,4.472,4.34,4.34,0,0,0,4.5,4.556,4.294,4.294,0,0,0,4.5-4.556A4.408,4.408,0,0,0,85.438,178.882Z"></path><path class="j" d="M158.425,178.882a4.412,4.412,0,0,0-4.5,4.472,4.339,4.339,0,0,0,4.5,4.556,4.294,4.294,0,0,0,4.5-4.556A4.409,4.409,0,0,0,158.425,178.882Z"></path><path class="j" d="M194.919,136.882a4.412,4.412,0,0,0-4.5,4.472,4.34,4.34,0,0,0,4.5,4.556,4.294,4.294,0,0,0,4.5-4.556A4.408,4.408,0,0,0,194.919,136.882Z"></path><path class="l" d="M34.39,20.336c-5.56,0-13.5-.219-16.227-.755A3.117,3.117,0,0,1,15.515,16.5a3.4,3.4,0,0,1,2.633-3.423,130.673,130.673,0,0,1,16.244-.76,122.929,122.929,0,0,1,16.24.76A3.4,3.4,0,0,1,53.265,16.5a3.117,3.117,0,0,1-2.648,3.086C47.894,20.116,40.738,20.336,34.39,20.336Z"></path><path class="l" d="M69.057,36.892c-5.561,0-13.5-.22-16.227-.756a3.116,3.116,0,0,1-2.648-3.085,3.4,3.4,0,0,1,2.633-3.423,130.452,130.452,0,0,1,16.243-.761,122.751,122.751,0,0,1,16.241.761,3.4,3.4,0,0,1,2.633,3.423,3.116,3.116,0,0,1-2.648,3.085C82.561,36.672,75.405,36.892,69.057,36.892Z"></path><path class="l" d="M104.39,20.336c-5.56,0-13.5-.219-16.227-.755A3.117,3.117,0,0,1,85.515,16.5a3.4,3.4,0,0,1,2.633-3.423,130.673,130.673,0,0,1,16.244-.76,122.929,122.929,0,0,1,16.24.76,3.4,3.4,0,0,1,2.633,3.423,3.117,3.117,0,0,1-2.648,3.086C117.894,20.116,110.738,20.336,104.39,20.336Z"></path><path class="l" d="M139.057,36.892c-5.561,0-13.5-.22-16.227-.756a3.116,3.116,0,0,1-2.648-3.085,3.4,3.4,0,0,1,2.633-3.423,130.452,130.452,0,0,1,16.243-.761,122.751,122.751,0,0,1,16.241.761,3.4,3.4,0,0,1,2.633,3.423,3.116,3.116,0,0,1-2.648,3.085C152.561,36.672,145.405,36.892,139.057,36.892Z"></path><path class="l" d="M175.39,20.336c-5.56,0-13.5-.219-16.227-.755a3.117,3.117,0,0,1-2.648-3.086,3.4,3.4,0,0,1,2.633-3.423,130.673,130.673,0,0,1,16.244-.76,122.929,122.929,0,0,1,16.24.76,3.4,3.4,0,0,1,2.633,3.423,3.117,3.117,0,0,1-2.648,3.086C188.894,20.116,181.738,20.336,175.39,20.336Z"></path><path class="l" d="M210.057,36.892c-5.561,0-13.5-.22-16.227-.756a3.116,3.116,0,0,1-2.648-3.085,3.4,3.4,0,0,1,2.633-3.423,130.452,130.452,0,0,1,16.243-.761,122.751,122.751,0,0,1,16.241.761,3.4,3.4,0,0,1,2.633,3.423,3.116,3.116,0,0,1-2.648,3.085C223.561,36.672,216.405,36.892,210.057,36.892Z"></path><path class="m" d="M1.932,4h240c2.574,0,2.578-4,0-4h-240c-2.574,0-2.578,4,0,4Z"></path><path class="m" d="M1.932,50.231h240c2.574,0,2.578-4,0-4h-240c-2.574,0-2.578,4,0,4Z"></path><path class="m" d="M1.932,214.23h240c2.574,0,2.578-4,0-4h-240c-2.574,0-2.578,4,0,4Z"></path><path class="m" d="M1.932,260.23h240c2.574,0,2.578-4,0-4h-240c-2.574,0-2.578,4,0,4Z"></path></g>
</svg>
</svg>
</svg>